# xmcd
#
# Track frame offsets:
#	150
#	19506
#	37378
#	50102
#	65167
#	91102
#	115112
#	131379
#	152363
#	175746
#	196691
#
# Disc length: 2923 seconds
#
# Revision: 0
# Processed by: cddbd v1.5.2PL0 Copyright (c) Steve Scherf et al.
# Submitted via: dBpowerAMP V4.0
#
DISCID=8a0b690b
DTITLE=Angela Desveaux - Angela Desveaux and the Mighty ship
DYEAR=2008
DGENRE=roots
TTITLE0=Other Side
TTITLE1=Sure Enough
TTITLE2=Hide From You
TTITLE3=The Way You Stay
TTITLE4=Joining Another
TTITLE5=Mighty Ship
TTITLE6=Shape You
TTITLE7=Red Alert
TTITLE8=Worried Mind
TTITLE9=For Design
TTITLE10=untitled last track
EXTD=
EXTT0=
EXTT1=
EXTT2=
EXTT3=
EXTT4=
EXTT5=
EXTT6=
EXTT7=
EXTT8=
EXTT9=
EXTT10=
PLAYORDER=
